<?xml version="1.0" standalone="no"?>
<!DOCTYPE svg PUBLIC "-//W3C//DTD SVG 20010904//EN"
 "http://www.w3.org/TR/2001/REC-SVG-20010904/DTD/svg10.dtd">
<svg version="1.0" xmlns="http://www.w3.org/2000/svg"
 width="260.000000pt" height="280.000000pt" viewBox="0 0 260.000000 280.000000"
 preserveAspectRatio="xMidYMid meet">

<g transform="translate(0.000000,280.000000) scale(0.100000,-0.100000)"
fill="#000000" stroke="none">
<path d="M1215 2160 c-192 -26 -386 -151 -483 -313 -175 -289 -102 -678 162
-875 71 -52 178 -104 256 -123 77 -19 240 -16 320 5 227 62 414 249 476 476
21 80 24 243 5 320 -82 332 -404 555 -736 510z m282 -152 c218 -91 347 -282
347 -513 -1 -241 -153 -442 -394 -520 -74 -25 -215 -25 -295 -1 -124 37 -222
105 -291 202 -70 98 -96 172 -102 287 -9 179 35 295 158 417 123 124 219 161
400 156 96 -2 125 -7 177 -28z"/>
<path d="M1120 1902 l-55 -7 -3 -352 -2 -353 80 0 80 0 0 140 0 140 34 0 c85
0 106 -26 144 -172 l27 -103 83 -3 c45 -2 82 0 82 2 0 18 -63 233 -75 257 -8
15 -27 39 -41 52 l-25 24 39 26 c131 86 97 283 -58 336 -41 14 -231 22 -310
13z m234 -126 c68 -28 74 -131 9 -169 -18 -10 -57 -21 -88 -24 l-55 -6 0 107
0 106 50 0 c28 0 65 -6 84 -14z"/>
<path d="M633 95 c0 -27 2 -38 4 -22 2 15 8 27 13 27 5 0 11 -12 13 -27 4 -26
4 -26 6 5 1 22 -4 32 -13 32 -8 0 -17 8 -19 18 -3 9 -5 -5 -4 -33z"/>
<path d="M1132 95 c0 -27 2 -43 5 -35 3 8 13 24 22 35 15 18 15 19 -1 7 -14
-12 -17 -10 -21 15 -2 16 -4 6 -5 -22z"/>
<path d="M749 119 c-8 -20 4 -62 19 -65 7 -1 8 0 2 3 -16 7 -12 43 5 43 8 0
15 -9 15 -19 0 -11 4 -22 9 -25 5 -4 7 3 4 15 -3 12 -1 24 4 28 7 4 6 11 -3
19 -8 7 -14 8 -14 2 0 -14 -27 -13 -32 2 -3 8 -6 7 -9 -3z"/>
<path d="M979 118 c-2 -25 3 -53 11 -62 5 -5 6 1 3 14 -3 12 -1 25 4 29 7 4 6
11 -3 19 -11 10 -14 10 -15 0z"/>
<path d="M1527 123 c22 -4 22 -6 8 -33 -22 -42 -17 -51 5 -10 25 46 25 50 -7
49 -24 -2 -25 -2 -6 -6z"/>
<path d="M1574 115 c-4 -8 -1 -22 6 -30 6 -8 9 -19 5 -25 -3 -5 -4 -10 -1 -10
10 0 33 55 29 68 -6 17 -32 15 -39 -3z m28 -10 c0 -5 -5 -11 -11 -13 -6 -2
-11 4 -11 13 0 9 5 15 11 13 6 -2 11 -8 11 -13z"/>
<path d="M1640 106 c-15 -29 -8 -56 15 -56 23 0 31 31 12 45 -12 9 -14 14 -5
23 7 7 8 12 2 12 -6 0 -16 -11 -24 -24z m22 -31 c0 -5 -5 -11 -11 -13 -6 -2
-11 4 -11 13 0 9 5 15 11 13 6 -2 11 -8 11 -13z"/>
<path d="M1700 106 c-15 -29 -8 -56 15 -56 23 0 31 31 12 45 -12 9 -14 14 -5
23 7 7 8 12 2 12 -6 0 -16 -11 -24 -24z m22 -31 c0 -5 -5 -11 -11 -13 -6 -2
-11 4 -11 13 0 9 5 15 11 13 6 -2 11 -8 11 -13z"/>
<path d="M1755 120 c-4 -6 1 -7 11 -3 13 5 16 3 11 -10 -3 -9 -2 -19 4 -22 14
-9 -1 -27 -18 -21 -8 3 -11 1 -8 -4 8 -14 32 -13 37 2 13 39 -18 88 -37 58z"/>
<path d="M1815 120 c-4 -6 1 -7 11 -3 13 5 16 3 11 -10 -3 -9 -2 -19 4 -22 14
-9 -1 -27 -18 -21 -8 3 -11 1 -8 -4 10 -16 32 -12 39 7 6 14 8 14 21 -3 13
-18 15 -18 31 -2 11 11 15 24 10 42 -8 34 -32 33 -50 -1 l-15 -28 -1 28 c0 27
-22 38 -35 17z m90 -30 c0 -13 -5 -25 -11 -27 -14 -5 -25 22 -17 42 8 23 28
12 28 -15z"/>
<path d="M1934 115 c-4 -8 -1 -22 6 -30 6 -8 9 -19 5 -25 -13 -22 4 -9 19 14
17 27 12 56 -10 56 -8 0 -17 -7 -20 -15z m28 -10 c0 -5 -5 -11 -11 -13 -6 -2
-11 4 -11 13 0 9 5 15 11 13 6 -2 11 -8 11 -13z"/>
<path d="M1995 120 c-4 -6 1 -7 11 -3 13 5 16 3 11 -10 -3 -9 -2 -19 4 -22 14
-9 -1 -27 -18 -21 -8 3 -11 1 -8 -4 8 -14 32 -13 37 2 13 39 -18 88 -37 58z"/>
<path d="M580 93 c0 -10 4 -14 8 -8 4 6 11 13 16 18 5 4 2 7 -7 7 -10 0 -17
-8 -17 -17z"/>
<path d="M691 83 c-1 -27 3 -33 19 -33 16 0 20 6 19 33 -2 30 -2 30 -6 5 -6
-36 -20 -36 -26 0 -4 25 -4 25 -6 -5z"/>
<path d="M834 96 c-9 -23 3 -46 23 -45 17 1 17 2 1 6 -22 6 -24 23 -2 23 9 0
14 5 12 12 -7 19 -27 21 -34 4z"/>
<path d="M891 78 c2 -28 2 -29 6 -8 3 14 10 28 17 32 7 5 5 8 -6 8 -14 0 -18
-8 -17 -32z"/>
<path d="M930 93 c0 -10 4 -14 8 -8 4 6 11 13 16 18 5 4 2 7 -7 7 -10 0 -17
-8 -17 -17z"/>
<path d="M1024 95 c-8 -21 2 -45 20 -45 17 0 28 24 20 45 -4 8 -13 15 -20 15
-8 0 -17 -7 -20 -15z m31 -15 c0 -7 -6 -15 -12 -17 -8 -3 -13 4 -13 17 0 13 5
20 13 18 6 -3 12 -11 12 -18z"/>
<path d="M1084 95 c-8 -20 2 -45 18 -44 10 0 10 2 1 6 -7 2 -13 13 -13 23 0
10 6 21 13 23 9 4 9 6 -1 6 -7 1 -15 -6 -18 -14z"/>
<path d="M1224 95 c-8 -20 2 -45 18 -44 10 0 10 2 1 6 -7 2 -13 13 -13 23 0
10 6 21 13 23 9 4 9 6 -1 6 -7 1 -15 -6 -18 -14z"/>
<path d="M1274 95 c-8 -21 2 -45 20 -45 7 0 16 7 20 15 8 21 -3 45 -20 45 -8
0 -17 -7 -20 -15z m31 -15 c0 -7 -6 -15 -12 -17 -8 -3 -13 4 -13 17 0 13 5 20
13 18 6 -3 12 -11 12 -18z"/>
<path d="M1331 77 c2 -31 2 -31 6 -4 2 15 8 27 13 27 5 0 11 -12 13 -27 l4
-28 2 28 c0 15 5 27 10 27 5 0 12 -12 14 -27 4 -27 4 -27 6 4 1 29 -1 31 -34
31 -33 0 -35 -2 -34 -31z"/>
<path d="M592 65 c-11 -12 -10 -15 3 -15 8 0 15 7 15 15 0 18 -2 18 -18 0z"/>
<path d="M942 65 c-11 -12 -10 -15 3 -15 8 0 15 7 15 15 0 18 -2 18 -18 0z"/>
<path d="M1150 71 c0 -5 5 -13 10 -16 6 -3 10 -2 10 4 0 5 -4 13 -10 16 -5 3
-10 2 -10 -4z"/>
</g>
</svg>
