<?xml version="1.0" encoding="UTF-8"?>
<svg width="700px" height="700px" viewBox="0 0 700 700" version="1.1" xmlns="http://www.w3.org/2000/svg" xmlns:xlink="http://www.w3.org/1999/xlink">
    <title>Artboard</title>
    <g id="Artboard" stroke="none" stroke-width="1" fill="none" fill-rule="evenodd">
        <g id="Group" transform="translate(66.000000, 36.000000)" fill-rule="nonzero">
            <path d="M152,362.858799 C152,250.40104 210.636455,152 281.0005,152 C351.364546,152 410,222.2866 410,362.858799 C410,503.431999 304.455182,562 281.0005,562 C257.545818,562 152,503.431999 152,362.858799 Z" id="Path" fill="#F2DA16"></path>
            <path d="M12.1887851,456.389275 C-2.85468422,421.310422 129.196154,281 164.298914,281 C145.577575,337.124169 164.298914,421.310422 176,456.389275 C152.597827,468.078068 40.0116899,521.263825 12.1887851,456.389275 Z" id="Path" fill="#FFFFFF"></path>
            <path d="M550.720288,456.860902 C565.717387,421.098958 444.652906,281 409.661347,281 C428.32251,338.217008 409.661347,424.042771 398,459.802213 C421.3252,471.722527 522.986683,523.000388 550.720288,456.860902 Z" id="Path" fill="#FFFFFF"></path>
            <path d="M0,440.151373 C2.88743541,431.240417 6.28092135,422.487801 10.1639725,413.940476 C22.9136483,390.530735 38.6441766,368.779312 56.984387,349.201682 C85.7997935,316.390484 118.174039,286.70811 153.543624,260.672035 C155.849076,258.543696 157.529084,255.854425 158.409302,252.882441 C167.282921,225.008232 182.011339,199.233892 201.661386,177.19576 C205.445525,173.195819 209.986992,169.721845 213.555322,165.511119 C214.261695,164.527617 214.734775,163.403758 214.940092,162.220459 C215.14591,161.03716 215.079469,159.823891 214.744766,158.669063 C197.11992,127.089115 179.170363,95.508668 161.328709,63.92872 C159.598746,60.9812116 157.868783,58.1390962 156.355127,55.0866942 C155.005825,52.2031209 154.860455,48.9219511 155.949987,45.9364812 C157.039519,42.9510113 159.27853,40.4945046 162.193941,39.0859342 C165.086372,37.7992401 168.377449,37.6498917 171.379782,38.670356 C174.382116,39.6903208 176.863412,41.8006789 178.305131,44.5598784 C186.955448,59.2974206 195.389457,74.1398562 203.823966,88.9822919 C214.636862,107.509488 225.449758,126.036184 235.289518,144.668273 C237.560002,148.56332 239.506273,148.773607 243.399315,147.089316 C255.580496,141.395096 268.920647,138.439096 282.433645,138.439096 C295.946643,138.439096 309.286795,141.395096 321.468475,147.089316 C325.253113,148.773607 327.090981,148.352534 329.145656,144.773666 C346.013674,114.983402 363.63902,84.455886 380.723345,54.7705151 C382.77802,51.2970405 384.615888,47.7176734 386.778467,44.2441988 C387.587748,42.8616021 388.669288,41.647834 389.960141,40.6723241 C391.251494,39.6968142 392.727184,38.9785432 394.303783,38.5579701 C395.880383,38.1378964 397.526421,38.0235125 399.147981,38.2228102 C400.769541,38.4216085 402.33515,38.9295929 403.754889,39.7177929 C405.174628,40.5054934 406.419023,41.5579252 407.423131,42.8151492 C408.427239,44.0718737 409.161587,45.5089152 409.596201,47.0433578 C410.025819,48.5782999 410.145713,50.1806736 409.940895,51.7595711 C409.736077,53.3379691 409.211542,54.8619224 408.402261,56.2445191 C396.077708,78.3505825 383.426445,100.24586 370.883585,122.351923 C363.963232,134.56303 356.82657,146.773637 350.122525,159.300423 C349.709891,160.321386 349.572513,161.428263 349.723879,162.515659 C349.875244,163.603056 350.310358,164.634009 350.987756,165.511119 C377.788452,190.452305 397.304119,221.875412 407.538029,256.566702 C408.652039,259.001731 410.405482,261.107593 412.623512,262.672505 C463.383428,300.388725 507.499244,345.897536 543.242498,397.413749 C552.744058,409.824653 559.083428,424.257005 561.731076,439.522012 C562.915025,450.780585 560.167465,462.099097 553.928007,471.649404 C547.688549,481.199711 538.321868,488.42238 527.346616,492.153593 C512.954399,498.457195 497.313291,501.579027 481.532308,501.309301 C465.75632,501.034579 450.235106,497.368301 436.087671,490.575195 C423.43391,484.995858 411.109856,478.572377 398.240287,472.258785 C393.915129,480.260664 389.806278,488.467335 385.048504,496.259426 C371.348672,521.82348 349.597491,542.447547 322.982131,555.104701 C318.180895,556.872906 313.860732,559.690047 310.355346,563.336346 C306.849459,566.98764 304.251767,571.373189 302.76209,576.158333 C299.626375,584.789572 295.301216,593.106131 291.408674,601.527584 C290.750758,603.64044 289.425435,605.503549 287.620538,606.84219 C285.815641,608.185826 283.622589,608.940061 281.352605,609 C279.063639,608.960041 276.846608,608.215796 275.02023,606.87216 C273.193352,605.533518 271.852044,603.660419 271.188133,601.527584 C265.781935,589.419873 260.375237,577.207268 254.860635,565.314339 C253.708659,562.312386 251.533091,559.784951 248.697609,558.156603 C215.177382,544.785175 193.443186,519.630705 176.250956,489.940839 C172.682625,483.732141 169.654814,477.30866 166.302792,470.785281 C155.489895,476.259725 145.542231,481.309599 135.161451,486.784043 C120.676317,494.331383 104.801416,499.021623 88.4499397,500.575046 C74.3799365,502.478114 60.0451685,501.054559 46.6620552,496.419264 C33.2784424,491.783968 21.2406343,484.071796 11.5697239,473.942077 C6.7090411,466.999124 2.81849664,459.461774 0,451.519834 L0,440.151373 Z M145.974347,298.568073 C144.639033,299.177454 143.37066,299.918203 142.190208,300.778829 C108.252851,328.703986 77.9018084,360.513701 51.7939971,395.518673 C42.888407,407.609401 35.1427865,420.470848 28.6540498,433.942674 C27.0244971,436.78479 26.029381,439.936591 25.7346428,443.183296 C25.4399045,446.425005 25.8520385,449.696685 26.9440686,452.773562 C28.0360986,455.855434 29.7835466,458.67757 32.072014,461.055157 C34.3599818,463.432743 37.1380144,465.310837 40.2242732,466.574555 C54.4436437,474.791215 71.0698765,478.162793 87.476804,476.154831 C110.762122,472.098948 132.884973,463.232946 152.354181,450.151224 C153.215416,449.791589 153.991227,449.262126 154.632657,448.5978 C155.274087,447.933474 155.767649,447.144275 156.082369,446.285147 C156.39659,445.426019 156.525975,444.511947 156.461033,443.60287 C156.39659,442.688798 156.139319,441.804695 155.706203,440.995516 C146.302556,409.702777 142.068816,377.155311 143.163344,344.569883 C143.379652,329.411269 144.893307,314.14776 145.974347,298.568073 Z M418.028711,298.568073 C419.327558,310.884572 420.94612,320.990315 421.380734,331.200952 C423.853538,368.703389 419.497407,406.336693 408.512164,442.364127 C407.433122,445.835604 407.538029,448.363038 411.324666,450.151224 C425.811798,457.099172 439.764406,465.205944 454.57625,471.204855 C465.781298,475.755237 477.950489,477.618346 490.049743,476.62935 C502.153992,475.640353 513.833618,471.829221 524.104496,465.520624 C529.329855,463.033149 533.371265,458.682565 535.384477,453.367959 C537.402684,448.053353 537.232835,442.189304 534.914894,436.994577 C532.027459,428.702493 528.180875,420.756558 523.455073,413.309116 C497.797861,375.031466 466.870331,340.35666 431.541709,310.252714 C427.760068,306.779239 423.43391,303.305265 418.028711,298.673466 L418.028711,298.568073 Z M396.40192,377.834122 C322.196328,403.424149 240.943996,401.739859 167.924851,373.09693 C170.195334,387.413399 172.466317,400.150472 174.088376,412.992937 C174.426077,415.435458 175.484636,417.730129 177.13517,419.598233 C178.785704,421.466837 180.957276,422.828954 183.387117,423.519753 C222.398967,440.201322 265.037596,447.254164 307.519864,444.047419 C333.141607,442.394097 358.345721,436.889683 382.237001,427.730479 C384.183272,426.993727 386.778467,425.309437 387.103179,423.625146 C390.455202,409.308677 393.266205,394.466241 396.510324,377.939515 L396.40192,377.834122 Z M177.331996,274.672825 C175.061512,287.199611 173.223145,298.778859 170.844258,310.252714 C170.577495,311.019435 170.473088,311.830612 170.536531,312.637793 C170.600474,313.444474 170.83077,314.230676 171.214929,314.948448 C171.598588,315.666219 172.127618,316.301075 172.770047,316.815053 C173.412477,317.328532 174.155317,317.710145 174.953108,317.937414 C202.617537,331.200453 232.57393,339.338693 263.294644,341.938054 C303.656795,345.830604 344.393613,340.458556 382.237001,326.253474 C394.455648,321.621675 394.78036,321.621675 393.049897,309.200282 C391.752549,298.673466 389.482066,289.304974 387.427391,278.778159 C318.90675,300.401712 244.905977,298.955679 177.331996,274.672825 Z M197.66044,225.723506 C252.538198,245.171767 312.470467,246.466453 368.180486,229.408267 C358.139904,207.496006 342.089659,188.701582 321.792687,175.090396 C309.929224,167.192413 295.857722,163.03713 281.486487,163.187477 C267.115251,163.338324 253.138665,167.787808 241.452544,175.932542 C222.787123,188.681103 207.7255,205.806221 197.66044,225.723506 Z M204.580793,487.203617 C219.826752,515.524873 250.211265,539.840194 281.893125,539.840194 C313.574986,539.840194 345.256846,513.94148 357.583898,490.365408 C307.06227,501.289321 254.581383,500.205421 204.580793,487.203617 Z" id="Shape" fill="#000000"></path>
            <path d="M298.479715,0 C307.736684,1.44834458 316.893907,3.4472295 325.899516,5.98519555 C339.932844,10.8150037 353.534769,16.4848219 368,22.7848966 L356.665312,42 C345.218409,36.5538856 333.428378,31.8192387 321.365541,27.8249564 C307.911241,24.0962289 294.00858,22.1187677 280.020137,21.9448867 C257.510854,22.117273 235.481351,28.2912965 216.329035,39.7948493 C212.011011,42.420005 211.255432,40.9497384 209.528322,37.6948244 C206.937408,32.7598904 203.914591,28.0347098 201,23.0997758 C220.498935,10.899204 242.698506,3.37747779 265.770858,1.15488914 C266.418212,1.15488914 267.066066,0.420004982 267.713919,0 L298.479715,0 Z" id="Path" fill="#FFFFFF"></path>
            <path d="M345,60.2414862 L333.670725,79 C318.701606,69.3549646 301.163361,64.2139127 283.230327,64.2139127 C265.297292,64.2139127 247.758549,69.3549646 232.78943,79 L222,60.7685428 C240.080084,48.6342401 261.479992,42.0950381 283.416755,42.001028 C305.353518,41.9070179 326.811249,48.2627002 345,60.2414862 Z" id="Path" fill="#FFFFFF"></path>
            <path d="M308.987,120 C301.6335,114.102181 292.416,110.879391 282.905,110.879391 C273.3935,110.879391 264.1765,114.102181 256.8225,120 L246,100.742593 C256.699,92.6296392 269.816,88.1566951 283.3545,88.0040658 C296.8935,87.8509343 310.1125,92.0271549 321,99.8961022 L308.987,120 Z" id="Path" fill="#FFFFFF"></path>
            <path d="M265.358861,187 C266.711008,187.03796 268.04071,187.345138 269.266669,187.902552 C270.492629,188.459967 271.58891,189.256131 272.48818,190.242096 C273.387449,191.227561 274.070755,192.382349 274.4962,193.635033 C274.921644,194.887718 275.080251,196.211828 274.962044,197.526447 C274.711665,200.00934 273.565508,202.325408 271.727067,204.060586 C269.889126,205.795764 267.479103,206.837171 264.926933,207 C262.217652,206.787723 259.689921,205.585985 257.849486,203.634534 C256.00905,201.683083 254.991574,199.125768 255,196.473553 C255.259409,193.939214 256.45245,191.582688 258.357226,189.840517 C260.261503,188.098347 262.749333,187.089406 265.358861,187 Z" id="Path" fill="#000000"></path>
            <path d="M300.248331,187 C301.604314,187.00949 302.94352,187.29569 304.18157,187.840617 C305.41962,188.385545 306.529869,189.177214 307.442739,190.166176 C308.355117,191.154638 309.050379,192.319415 309.484116,193.586085 C309.917853,194.852755 310.080689,196.194346 309.962756,197.526447 C309.711593,200.026322 308.562363,202.355377 306.722312,204.093052 C304.881767,205.830228 302.471788,206.861146 299.928086,207 C297.335533,206.824684 294.896441,205.72334 293.068726,203.901753 C291.241011,202.079666 290.150007,199.663204 290,197.105389 C290.105597,194.458169 291.219299,191.947805 293.118564,190.074771 C295.018322,188.201738 297.563998,187.103891 300.248331,187 Z" id="Path" fill="#000000"></path>
        </g>
    </g>
</svg>